<svg xmlns="http://www.w3.org/2000/svg" viewBox="0 0 64 64">
<path d="m55.707 11.293-10-10A1.115 1.115 0 0 0 45 1H9a1 1 0 0 0-1 1v60a1 1 0 0 0 1 1h46a1 1 0 0 0 1-1V12a1.092 1.092 0 0 0-.293-.707zM52.586 11H46V4.414zM10 61V3h34v9a1 1 0 0 0 1 1h9v48z" style="fill:#FFFFFF "/>
<path d="M34 8h7a1 1 0 0 0 0-2h-7a1 1 0 0 0 0 2zM34 13h7a1 1 0 0 0 0-2h-7a1 1 0 0 0 0 2zM50 16H34a1 1 0 0 0 0 2h16a1 1 0 0 0 0-2zM50 21H34a1 1 0 0 0 0 2h16a1 1 0 0 0 0-2zM50 26H34a1 1 0 0 0 0 2h16a1 1 0 0 0 0-2zM50 31H14a1 1 0 0 0 0 2h36a1 1 0 0 0 0-2zM50 36H14a1 1 0 0 0 0 2h36a1 1 0 0 0 0-2zM50 41H14a1 1 0 0 0 0 2h36a1 1 0 0 0 0-2zM50 46H14a1 1 0 0 0 0 2h36a1 1 0 0 0 0-2zM50 51H14a1 1 0 0 0 0 2h36a1 1 0 0 0 0-2zM50 56H14a1 1 0 0 0 0 2h36a1 1 0 0 0 0-2zM22 19a5 5 0 1 0-5-5 5.006 5.006 0 0 0 5 5zm0-8a3 3 0 1 1-3 3 3 3 0 0 1 3-3z" style="fill:#FFFFFF"/>
<path d="M14 28h16a1 1 0 0 0 1-1V7a1 1 0 0 0-1-1H14a1 1 0 0 0-1 1v20a1 1 0 0 0 1 1zm1.473-2a7.325 7.325 0 0 1 13.054 0zM29 8v15.164a9.325 9.325 0 0 0-14 0V8z" style="fill:#FFFFFF "/>
</svg>