<svg width="32" height="32" viewBox="0 0 32 32" fill="none" xmlns="http://www.w3.org/2000/svg">
<path d="M16.377 23.6315C13.6437 23.8147 11.0045 23.9923 8.26832 24.1754C8.36523 23.7425 8.47923 23.3707 8.53054 22.9906C8.59894 22.4911 8.67875 21.9833 8.64454 21.4839C8.32818 16.7807 8.01181 12.0802 7.63559 7.37976C7.56718 6.51959 7.23086 5.67883 7 4.76594C7.11971 4.74375 7.29927 4.69102 7.48168 4.67993C10.9104 4.44962 14.3392 4.17769 17.7708 4.01121C19.7972 3.91132 21.6441 4.47182 23.0635 5.98683C25.1498 8.21497 25.2695 11.8998 23.3457 14.275C23.1718 14.4915 22.941 14.6774 22.8213 14.9188C22.7243 15.113 22.6502 15.4238 22.7443 15.5903C23.8986 17.6159 25.8624 21.1592 27.0594 23.1626C27.3046 23.5733 27.6437 23.934 28 24.3974C27.7406 24.4445 27.5611 24.4917 27.3815 24.5056C25.0159 24.6693 22.6502 24.8136 20.2846 24.9939C19.7516 25.0356 19.6576 24.8663 19.5265 24.3696C19.2842 23.4456 18.0672 21.0371 17.6596 20.1631C17.3176 19.4361 16.9214 18.7313 16.4939 18.0487C16.3656 17.8462 16.0464 17.7546 15.8156 17.6103C15.7186 17.8267 15.5191 18.0515 15.5391 18.2568C15.6844 19.7053 15.8669 21.1509 16.0635 22.5938C16.1063 22.9184 16.2545 23.2292 16.3799 23.6315H16.377ZM14.8579 11.1673C14.8579 11.1673 14.8579 11.1673 14.855 11.1673C14.8779 11.4836 14.8978 11.8 14.9235 12.1135C14.9947 13.0791 14.9919 13.068 16.0065 12.9959C16.8559 12.9348 17.4287 12.5408 17.7024 11.75C17.9902 10.9176 17.8534 10.1407 17.2292 9.52188C16.5908 8.88923 15.7586 9.19723 15.0004 9.27215C14.9064 9.28047 14.7724 9.56073 14.7724 9.71334C14.7724 10.1961 14.8294 10.6817 14.8636 11.1645L14.8579 11.1673Z" fill="#231F20"/>
</svg>
