<svg xmlns="http://www.w3.org/2000/svg" viewBox="0 0 711.2 669.7"><path fill="#e6e6e6" d="M516.3 380v185l30.9 50.4 2.4 3.9h122.1l2.5-239.3z"/><path d="M516.3 380v185l31 50.4 1.9-235.4z" opacity=".1"/><path fill="#e6e6e6" d="M221.6 375.1v185l-31 50.4-2.3 3.8H66.2l-2.5-239.2z"/><path d="M221.6 375.1v185l-31 50.4-1.9-235.4z" opacity=".1"/><path fill="#e6e6e6" d="M711.2 371.4v11H47.7v-16l61.7-32H657z"/><path d="M711.2 371.4v11H47.7v-16z" opacity=".1"/><path fill="#3f3d56" d="M142.6 426.9H113l-12.3-8.6h55.5zm0 35.8H113l-12.3-8.6h55.5zm0 50.5H113l-12.3-8.6h55.5zm0 50.6H113l-12.3-8.6h55.5zm452.7-132h-29.6l-12.3-8.6h55.5zm0 35.8h-29.6l-12.3-8.6h55.5zm0 50.5h-29.6l-12.3-8.6h55.5zm0 50.6h-29.6l-12.3-8.6h55.5zm20.1-448.2H366.2a9.4 9.4 0 0 0-9.4 9.4v167.9a9.4 9.4 0 0 0 9.4 9.4h94.6l-3.5 22.6s-20.3 10.8-6 11.1 81.3 0 81.3 0 13 0-7.6-11.4l-3.3-22.3h93.7a9.4 9.4 0 0 0 9.4-9.4V129.9a9.4 9.4 0 0 0-9.4-9.4"/><path fill="#f2f2f2" d="M365.8 130.4h250v139.9h-250z"/><circle cx="490.8" cy="126" r="1.6" fill="#f2f2f2"/><circle cx="490.8" cy="294.3" r="6" fill="#f2f2f2"/><path fill="#3f3d56" d="M481.5 358v3.1H311.2v-2.5l.2-.6 4.2-11.4H478zm65.5-3.1c-.3 1.3-1.5 2.7-4.1 4-9.5 4.8-28.8-1.2-28.8-1.2s-14.9-2.6-14.9-9.2c.4-.3.9-.5 1.3-.8 4-2.1 17.2-7.3 40.7.2a9.8 9.8 0 0 1 4.5 3 4.7 4.7 0 0 1 1.3 4"/><path d="M547 354.9c-11.6 4.4-22 4.8-32.6-2.6a23.3 23.3 0 0 0-13.9-4.6c4-2.1 17.2-7.3 40.7.2a9.8 9.8 0 0 1 4.5 3 4.7 4.7 0 0 1 1.3 4" opacity=".1"/><ellipse cx="532.4" cy="351" fill="#f2f2f2" rx="4.1" ry="1.3"/><path d="M481.5 358v3.1H311.2v-2.5l.2-.6z" opacity=".1"/><path fill="#2f2e41" d="M94.7 0a8.5 8.5 0 0 0-5 1.1c-1.5 1-2.4 2.8-3.4 4.4a53 53 0 0 1-14.4 16.3c-4.3 3.2-9.7 7.1-9 12.9a17.4 17.4 0 0 0 2.1 5.4c4 8 14.8 14.2 13.7 23.3 3.9-6.6-1.3-9.8 2.6-16.4 1.9-3.1 5.1-6.7 8-4.7 1 .7 1.5 1.8 2.5 2.4 2.4 1.4 4.9-1.2 7-3.1 7.1-6.4 17.3-4.8 26.3-2.8 4.2 1 8.8 2.2 11.3 6.2 3.3 5.3-3.1 11-4.7 17.1a3.3 3.3 0 0 0 3.5 4c2.7-.2 5.9-.4 6-1.6 3.4.1 7.5-.3 9-3.8a14.8 14.8 0 0 0 .7-4.3c.5-5.9 3-11.3 4.7-16.9s2.4-12.2-.4-17.1a19.9 19.9 0 0 0-3.7-4.5C135.5 2.5 114.7 0 94.7 0"/><path fill="#ffb8b8" d="M82.1 74.9s3.5 28.8-9.2 31.1 11.5 41.4 11.5 41.4L142 154l-13.8-46s-9.2-3.5-3.5-26.5-42.6-6.9-42.6-6.9M47 569.3l4.6 63.3h24.2l-6.9-63.3zm177.3-119.7 3.5 53 26.4-11.5-10.3-43.8z"/><path fill="#2f2e41" d="M29.8 327.6s1.1 66.7 8 88.6 5.8 23 4.6 26.5-2.3 1.1-2.3 6.9-2.3 96.7 0 104.7-6.9 21.9 0 23 39.2 0 40.3-6.9-9.2-9.2-4.6-13.8 11.5-99 11.5-99l16.1-65.6 30-34.5h63.3l19.5 75.5s-8 22-2.3 22 40.3 7 40.3-18.4-11.5-100.2-13.8-102.5 1.1-10.3-2.3-13.8-43.8-27.6-58.7-32.2-36-10.1-36-10.1zm224.4 154.2s-17.2-5.7-25.3 11.5-4.6 21.9-4.6 21.9 26.5 9.2 31.1 4.6c2-2 8.4-2.7 14.9-2.8 10-.3 12.6-14.4 3.2-17.6l-.8-.3c-9.2-2.3-18.5-17.3-18.5-17.3"/><circle cx="108" cy="59.4" r="34.5" fill="#ffb8b8"/><path fill="#55198b" d="M63.1 120.4s56.4 11.5 70.2-6.9 19.6 51.8 19.6 51.8l6.9 73.7-10.3 40.3S95.4 323 78.1 326.5s-43.7 5.7-43.7 5.7 8-127.8 8-130 20.7-81.8 20.7-81.8"/><path fill="#2f2e41" d="M80.3 98.8s-12.5-7.2-16-.3-35.7 24.2-39.1 24.2 6.9 95.5 2.3 107S1 325.2 13.7 332.1s3.4-6.9 16.1 10.4 74.8 17.2 78.3 10.3-27.6-58.7-21.9-107.1 15-115.1 7-124.3-12.9-22.7-12.9-22.7m41.6 7.9 1.6-5.5s47.9 15.9 50.2 26.2 1.1 82.9-6.9 88.6-19.6 15-11.5 28.8 17.2 28.8 24.1 30 19.6 9.2 16.1 17.2-44.8-6.9-44.8-6.9-27.7-20.7-26.5-53-2.3-125.4-2.3-125.4"/><path fill="#ffb8b8" d="m162.1 242.4-27.6 51.8s-40.3 41.4-17.3 46 35.7-38 35.7-38l30-42.6z"/><path fill="#2f2e41" d="M96.3 9a7.8 7.8 0 0 0-4 .8 9.4 9.4 0 0 0-2.7 3.1 39.8 39.8 0 0 1-11.8 11.5c-3.5 2.3-7.9 5-7.3 9.1a11.4 11.4 0 0 0 1.7 3.9 30.2 30.2 0 0 1 3.7 18.8l9.6-14c1.5-2.2 4.1-4.7 6.4-3.3.8.5 1.3 1.3 2.1 1.7 2 1 4-1 5.7-2.2 5.8-4.6 14.1-3.4 21.4-2 3.4.7 7.2 1.6 9.2 4.4 3.4 4.8-.1 11.6 1.8 17.1a5 5 0 0 0 2.1-3.4c2.8.1 6.1-.2 7.3-2.6a9.2 9.2 0 0 0 .6-3c.4-4.2 2.4-8 3.8-12s2-8.6-.3-12.1a14.7 14.7 0 0 0-3-3.2c-16.3-14.3-33.2-16-49.5-16m69 117.1 10.8 2.8s25 64 19.2 107.7-9.2 34.5-9.2 34.5-9.2-20.7-30-16.1ZM48.6 624.3c-2.8 3.7-2.2 9.1-4.7 13.1-2.1 3.5-6.1 5.3-8.8 8.4a22.3 22.3 0 0 0-2.3 3.2c-2.4 4.2-4.4 9.5-2 13.7 2 3.3 6.1 4.6 9.9 5.5 4.7 1.1 9.7 2 14.5 1.2s9.6-3.8 11.3-8.4c.3-1.2.8-2.3 1.2-3.4 2.6-5.2 10.8-5.2 13.5-10.4 1.9-3.5.2-7.9-1.6-11.5l-5.2-11.2c-1.8-3.7-8.9-1.6-12.6-2.4-4.8-1.2-9.8-2.5-13.2 2.2"/><path fill="#ffb8b8" d="m10.2 265.4 48.3 74.8s30 38 39.2 20.7-32.3-46-32.3-46l-31-57.6z"/><path fill="#2f2e41" d="m34.4 125-9.2-2.3s-18.4 5.7-23 29.9-1.2 120.9 4.6 122 28.4-16.8 32-13-7.8-15.8-4.4-26.1 0-110.5 0-110.5"/><path fill="#55198b" d="M437.4 176.4h29.8v7.1h-29.8zm122.3 0h10.5v7.1h-10.5zm21 0h10.4v7.1h-10.4zm-103.1 0h71.1v7.1h-71.1zm-77.7 46.2h29.8v7.2h-29.8zm122.4 0h10.4v7.2h-10.4zm20.9 0h10.5v7.2h-10.5zm-103 0h71v7.2h-71zm82.6-30.3h29.8v7.2h-29.8zm40.2 0h29.8v7.2H563zm-163.1 0h10.5v7.2h-10.5zm21 0h10.4v7.2h-10.4zm20.9 0h71v7.2h-71zm19.3 15.5h29.8v7.1h-29.8zm-40.2 0h29.8v7.1h-29.8zm-21 0h10.5v7.1h-10.5zm182.4 0h10.5v7.1h-10.5zm-81.5 0h71v7.1h-71z"/></svg>